<svg width="62" height="62" viewBox="0 0 62 62" fill="none" xmlns="http://www.w3.org/2000/svg">
<g clip-path="url(#clip0_964_55)">
<path d="M42.625 0H19.375C14.2364 0 9.30832 2.04129 5.67481 5.67481C2.04129 9.30832 0 14.2364 0 19.375L0 42.625C0 47.7636 2.04129 52.6917 5.67481 56.3252C9.30832 59.9587 14.2364 62 19.375 62H42.625C47.7636 62 52.6917 59.9587 56.3252 56.3252C59.9587 52.6917 62 47.7636 62 42.625V19.375C62 14.2364 59.9587 9.30832 56.3252 5.67481C52.6917 2.04129 47.7636 0 42.625 0V0ZM56.1875 42.625C56.1875 50.1037 50.1037 56.1875 42.625 56.1875H19.375C11.8962 56.1875 5.8125 50.1037 5.8125 42.625V19.375C5.8125 11.8962 11.8962 5.8125 19.375 5.8125H42.625C50.1037 5.8125 56.1875 11.8962 56.1875 19.375V42.625Z" fill="url(#paint0_linear_964_55)"/>
<path d="M31 15.5C26.8891 15.5 22.9467 17.133 20.0398 20.0398C17.133 22.9467 15.5 26.8891 15.5 31C15.5 35.1109 17.133 39.0533 20.0398 41.9602C22.9467 44.867 26.8891 46.5 31 46.5C35.1109 46.5 39.0533 44.867 41.9602 41.9602C44.867 39.0533 46.5 35.1109 46.5 31C46.5 26.8891 44.867 22.9467 41.9602 20.0398C39.0533 17.133 35.1109 15.5 31 15.5ZM31 40.6875C28.4317 40.6844 25.9694 39.6628 24.1533 37.8467C22.3372 36.0306 21.3156 33.5683 21.3125 31C21.3125 25.6564 25.6602 21.3125 31 21.3125C36.3398 21.3125 40.6875 25.6564 40.6875 31C40.6875 36.3398 36.3398 40.6875 31 40.6875Z" fill="url(#paint1_linear_964_55)"/>
<path d="M47.6625 16.4029C48.8032 16.4029 49.7279 15.4782 49.7279 14.3375C49.7279 13.1968 48.8032 12.2721 47.6625 12.2721C46.5219 12.2721 45.5972 13.1968 45.5972 14.3375C45.5972 15.4782 46.5219 16.4029 47.6625 16.4029Z" fill="url(#paint2_linear_964_55)"/>
</g>
<defs>
<linearGradient id="paint0_linear_964_55" x1="5.67494" y1="56.3251" x2="56.3251" y2="5.67494" gradientUnits="userSpaceOnUse">
<stop stop-color="#FFC107"/>
<stop offset="0.5074" stop-color="#F44336"/>
<stop offset="0.9901" stop-color="#9C27B0"/>
</linearGradient>
<linearGradient id="paint1_linear_964_55" x1="20.04" y1="41.96" x2="41.96" y2="20.04" gradientUnits="userSpaceOnUse">
<stop stop-color="#FFC107"/>
<stop offset="0.5074" stop-color="#F44336"/>
<stop offset="0.9901" stop-color="#9C27B0"/>
</linearGradient>
<linearGradient id="paint2_linear_964_55" x1="46.2013" y1="15.7988" x2="49.1238" y2="12.8762" gradientUnits="userSpaceOnUse">
<stop stop-color="#FFC107"/>
<stop offset="0.5074" stop-color="#F44336"/>
<stop offset="0.9901" stop-color="#9C27B0"/>
</linearGradient>
<clipPath id="clip0_964_55">
<rect width="62" height="62" fill="white"/>
</clipPath>
</defs>
</svg>
