<svg xmlns="http://www.w3.org/2000/svg" xmlns:xlink="http://www.w3.org/1999/xlink" width="512" zoomAndPan="magnify" viewBox="0 0 384 383.999986" height="512" preserveAspectRatio="xMidYMid meet" version="1.0"><defs><clipPath id="138f2ddc9d"><path d="M 182 42.417969 L 237.242188 42.417969 L 237.242188 338 L 182 338 Z M 182 42.417969 " clip-rule="nonzero"/></clipPath><clipPath id="52cfdeef31"><path d="M 146.492188 294 L 188 294 L 188 341.667969 L 146.492188 341.667969 Z M 146.492188 294 " clip-rule="nonzero"/></clipPath><clipPath id="b5c9ed9b11"><path d="M 184 340 L 186 340 L 186 341.667969 L 184 341.667969 Z M 184 340 " clip-rule="nonzero"/></clipPath></defs><path fill="#010101" d="M 201.625 140.804688 C 201.625 140.625 201.566406 140.5625 201.625 140.804688 Z M 201.625 140.804688 " fill-opacity="1" fill-rule="nonzero"/><path fill="#010101" d="M 198.875 251.765625 C 198.875 251.828125 198.875 251.828125 198.875 251.886719 C 198.996094 251.949219 199.117188 252.070312 199.179688 252.132812 Z M 198.875 251.765625 " fill-opacity="1" fill-rule="nonzero"/><path fill="#010101" d="M 197.28125 269.589844 C 197.28125 269.648438 197.28125 269.648438 197.222656 269.710938 C 197.28125 269.710938 197.34375 269.710938 197.28125 269.589844 Z M 197.28125 269.589844 " fill-opacity="1" fill-rule="nonzero"/><path fill="#010101" d="M 199.484375 210.628906 C 199.484375 210.445312 199.484375 210.386719 199.425781 210.324219 C 199.425781 210.386719 199.425781 210.507812 199.484375 210.628906 Z M 199.484375 210.628906 " fill-opacity="1" fill-rule="nonzero"/><path fill="#010101" d="M 201.441406 108.09375 C 201.441406 108.09375 201.441406 108.152344 201.441406 108.152344 C 201.441406 108.09375 201.503906 108.03125 201.503906 107.96875 Z M 201.441406 108.09375 " fill-opacity="1" fill-rule="nonzero"/><path fill="#010101" d="M 201.625 108.457031 C 201.503906 108.824219 201.441406 108.335938 201.441406 108.152344 C 201.257812 108.582031 201.257812 109.007812 201.320312 109.433594 C 201.503906 109.433594 201.503906 108.640625 201.625 108.457031 Z M 201.625 108.457031 " fill-opacity="1" fill-rule="nonzero"/><path fill="#010101" d="M 198.140625 48.035156 L 198.261719 48.21875 C 198.261719 48.09375 198.199219 48.035156 198.140625 48.035156 Z M 198.140625 48.035156 " fill-opacity="1" fill-rule="nonzero"/><path fill="#010101" d="M 190.183594 212.03125 C 190.183594 211.972656 190.183594 211.851562 190.125 211.789062 C 190.125 211.910156 190.183594 211.972656 190.183594 212.03125 Z M 190.183594 212.03125 " fill-opacity="1" fill-rule="nonzero"/><path fill="#010101" d="M 200.097656 57.738281 L 200.402344 57.800781 C 200.28125 57.738281 200.160156 57.679688 200.097656 57.738281 Z M 200.097656 57.738281 " fill-opacity="1" fill-rule="nonzero"/><path fill="#010101" d="M 199.179688 252.132812 L 199.300781 252.253906 C 199.242188 252.195312 199.242188 252.195312 199.179688 252.132812 Z M 199.179688 252.132812 " fill-opacity="1" fill-rule="nonzero"/><path fill="#010101" d="M 196.179688 286.066406 C 196.121094 286.066406 195.996094 286.128906 195.9375 286.128906 C 195.9375 286.128906 195.9375 286.191406 195.9375 286.191406 Z M 196.179688 286.066406 " fill-opacity="1" fill-rule="nonzero"/><path fill="#010101" d="M 226.347656 296.441406 C 226.347656 296.441406 226.285156 296.382812 226.226562 296.382812 L 226.042969 296.75 C 226.226562 296.566406 226.285156 296.503906 226.347656 296.441406 Z M 226.347656 296.441406 " fill-opacity="1" fill-rule="nonzero"/><path fill="#010101" d="M 193.609375 308.222656 C 193.671875 308.222656 193.671875 308.285156 193.734375 308.285156 C 193.734375 308.222656 193.792969 308.160156 193.792969 308.101562 C 193.792969 308.039062 193.792969 308.039062 193.792969 307.980469 C 193.792969 307.980469 193.792969 307.796875 193.855469 307.671875 C 193.917969 307.183594 193.917969 306.636719 193.976562 305.964844 L 193.609375 305.84375 C 193.609375 305.84375 193.609375 306.515625 193.609375 307.183594 C 193.609375 308.039062 193.609375 308.222656 193.609375 308.222656 Z M 193.609375 308.222656 " fill-opacity="1" fill-rule="nonzero"/><g clip-path="url(#138f2ddc9d)"><path fill="#010101" d="M 197.222656 323.296875 C 197.222656 323.296875 196.363281 323.910156 195.445312 324.519531 C 194.652344 325.066406 193.792969 325.617188 193.792969 325.617188 C 195.140625 324.273438 196.363281 322.992188 197.527344 321.894531 C 198.691406 320.855469 199.792969 319.878906 200.832031 318.964844 C 201.382812 318.539062 201.871094 318.050781 202.359375 317.621094 C 202.726562 317.316406 203.09375 317.074219 203.402344 316.765625 C 203.953125 316.339844 204.441406 315.972656 204.992188 315.546875 C 207.074219 313.960938 209.09375 312.496094 211.539062 310.421875 L 211.355469 310.726562 C 211.785156 310.542969 211.84375 309.992188 213.070312 309.015625 C 213.679688 308.527344 214.539062 307.917969 215.882812 307.183594 C 217.230469 306.453125 219.066406 305.597656 221.511719 304.683594 L 221.574219 304.742188 C 221.878906 304.5625 221.820312 304.4375 222.492188 304.195312 C 222.492188 304.195312 222.0625 304.316406 221.636719 304.4375 C 221.207031 304.5625 220.777344 304.742188 220.777344 304.742188 C 221.574219 304.011719 222.246094 303.21875 223.410156 302.484375 C 223.714844 302.425781 223.898438 302.484375 223.960938 302.546875 C 223.960938 302.546875 224.695312 302.058594 225.429688 301.632812 C 226.164062 301.203125 226.960938 300.714844 226.960938 300.714844 L 228.121094 300.59375 C 228.917969 299.859375 228.058594 299.191406 230.875 298.335938 C 229.589844 298.214844 231.976562 297.296875 231.488281 297.175781 C 231.671875 297.175781 232.039062 297.175781 232.28125 297.113281 C 233.75 296.261719 236.625 294.671875 237.175781 294 C 237.175781 294 235.527344 294.429688 233.566406 294.796875 C 231.671875 295.222656 229.46875 295.710938 228.488281 295.832031 C 230.753906 294.855469 229.039062 295.464844 228.488281 295.464844 L 228.425781 295.710938 C 227.019531 296.261719 226.835938 295.894531 226.101562 296.078125 C 226.101562 296.136719 226.164062 296.136719 226.226562 296.136719 L 226.285156 296.015625 C 226.410156 296.078125 226.347656 296.136719 226.347656 296.199219 C 226.410156 296.261719 226.410156 296.382812 226.042969 296.566406 L 226.101562 296.503906 C 225.613281 296.871094 224.632812 297.296875 224.207031 297.542969 L 224.023438 297.238281 C 223.714844 297.785156 222.003906 298.457031 220.167969 299.128906 C 218.332031 299.800781 216.433594 300.410156 215.824219 300.835938 C 214.292969 301.265625 213.070312 302.730469 211.417969 303.585938 C 208.910156 305.171875 209.886719 303.949219 208.480469 304.5625 C 206.828125 305.476562 209.03125 304.683594 208.417969 305.171875 C 208.417969 305.171875 207.867188 305.414062 207.378906 305.597656 C 206.828125 305.84375 206.339844 306.027344 206.339844 306.027344 C 207.378906 305.230469 206.644531 305.476562 206.398438 305.476562 C 205.605469 306.027344 204.503906 306.636719 203.585938 307.183594 C 202.667969 307.796875 201.933594 308.34375 201.933594 308.832031 C 199.609375 310.175781 199.484375 309.992188 198.566406 310.664062 C 198.933594 310.542969 199.609375 310.175781 199.730469 310.238281 C 198.691406 310.664062 199.363281 310.601562 199.792969 310.421875 C 199.667969 310.601562 199.425781 310.785156 199.179688 310.96875 C 199.058594 311.089844 198.875 311.152344 198.75 311.273438 C 198.691406 311.335938 198.566406 311.398438 198.507812 311.457031 C 198.445312 311.519531 198.445312 311.519531 198.382812 311.519531 L 198.324219 311.578125 C 197.894531 311.761719 197.464844 312.007812 197.097656 312.128906 C 196.363281 312.433594 195.9375 312.496094 195.753906 313.167969 L 195.8125 312.921875 C 195.691406 313.410156 195.628906 313.898438 195.507812 314.324219 C 195.445312 314.753906 195.324219 315.121094 194.957031 315.667969 C 194.957031 315.667969 194.710938 315.546875 194.710938 315.546875 L 194.039062 316.523438 C 193.792969 316.523438 194.101562 316.035156 194.101562 315.914062 C 193.488281 316.644531 192.9375 317.195312 192.449219 317.621094 C 192.144531 317.988281 192.386719 317.316406 192.386719 317.011719 C 192.449219 316.644531 192.507812 316.339844 192.507812 315.972656 C 192.507812 315.972656 192.019531 317.132812 191.53125 318.476562 C 191.042969 319.820312 190.550781 321.285156 190.550781 321.285156 C 190.796875 320.125 191.164062 318.539062 191.46875 317.132812 C 191.714844 315.972656 191.835938 315.179688 191.53125 315.484375 C 191.53125 315.484375 191.714844 315.058594 191.835938 314.632812 C 192.019531 314.265625 192.144531 313.835938 192.144531 313.835938 C 192.449219 312.863281 192.570312 312.375 192.632812 312.066406 C 192.632812 311.761719 192.570312 311.703125 192.507812 311.640625 C 192.324219 311.578125 192.019531 311.761719 192.203125 311.089844 C 192.203125 311.089844 192.386719 310.664062 192.570312 310.238281 C 192.753906 309.808594 192.9375 309.503906 192.9375 309.503906 L 192.875 310.664062 C 193.058594 309.992188 193.242188 309.566406 193.367188 309.136719 C 193.550781 308.773438 193.671875 308.40625 193.917969 308.039062 C 193.917969 308.101562 193.855469 308.101562 193.792969 308.160156 L 193.792969 308.039062 C 193.734375 308.039062 193.671875 307.980469 193.609375 307.917969 C 193.609375 307.855469 193.550781 307.855469 193.550781 307.796875 C 193.550781 307.796875 193.550781 307.734375 193.488281 307.734375 C 193.488281 307.671875 193.488281 307.613281 193.488281 307.550781 C 193.425781 307.125 193.425781 306.574219 193.488281 305.902344 C 193.671875 304.074219 193.304688 302.609375 194.160156 299.679688 L 193.609375 298.882812 L 194.101562 296.6875 L 194.589844 296.6875 C 194.40625 298.824219 194.40625 302.914062 194.222656 305.71875 L 194.46875 305.78125 C 194.589844 304.132812 194.46875 302.242188 194.589844 301.144531 C 194.710938 300.59375 195.324219 299.3125 195.570312 300.289062 L 195.140625 299.25 C 195.386719 293.757812 195.386719 293.695312 196.242188 288.019531 L 195.996094 288.507812 C 195.9375 287.347656 195.8125 286.1875 196.242188 285.945312 C 196.488281 282.527344 197.039062 278.925781 197.773438 276.730469 L 197.222656 276.179688 C 197.28125 275.449219 198.199219 274.410156 197.40625 273.984375 L 197.222656 272.394531 C 197.34375 271.417969 197.039062 270.746094 197.40625 269.648438 C 197.40625 269.589844 197.464844 269.527344 197.464844 269.464844 C 197.464844 269.464844 197.40625 269.464844 197.40625 269.464844 C 197.773438 267.207031 196.914062 269.464844 197.34375 266.902344 C 197.773438 266.109375 196.671875 265.925781 196.855469 264.707031 L 197.710938 263.484375 C 198.324219 261.226562 197.464844 260.800781 197.648438 257.503906 C 198.015625 255.917969 198.75 255.183594 199.300781 256.28125 C 198.628906 254.816406 198.8125 255.613281 198.566406 253.660156 C 198.875 253.351562 198.933594 253.597656 199.179688 254.023438 C 199.609375 252.316406 198.933594 252.988281 199.058594 251.707031 C 198.507812 251.277344 197.589844 250.851562 197.589844 250.421875 L 197.40625 250.910156 C 197.160156 249.570312 197.097656 248.042969 197.464844 246.457031 L 197.773438 246.515625 L 197.464844 245.050781 L 197.832031 244.992188 L 197.832031 242.609375 L 197.710938 242.917969 C 197.710938 242.367188 197.648438 240.476562 197.894531 239.4375 L 198.078125 239.5 C 198.875 236.570312 198.140625 234.066406 198.199219 230.527344 L 198.628906 231.015625 C 199.117188 229.855469 198.015625 230.648438 198.261719 229.246094 L 198.8125 229.183594 C 198.199219 227.902344 198.996094 227.597656 199.300781 226.742188 L 198.628906 227.109375 L 198.8125 225.523438 C 199.117188 223.75 199.730469 224.484375 200.097656 224.726562 L 199.609375 223.507812 L 200.21875 223.261719 C 199.546875 222.347656 200.34375 222.410156 200.035156 220.820312 C 200.28125 220.699219 200.402344 221.128906 200.527344 220.578125 L 199.792969 217.953125 L 200.097656 219.539062 L 199.242188 219.296875 C 198.628906 217.648438 199.425781 217.097656 199.242188 215.9375 L 199.484375 216.734375 C 199.363281 214.839844 199.730469 214.78125 199.976562 213.679688 C 199.792969 213.984375 199.546875 214.472656 199.425781 213.742188 C 199.425781 213.191406 199.730469 213.4375 199.851562 212.949219 C 199.242188 212.828125 198.996094 211.421875 199.300781 210.203125 C 199.363281 210.203125 199.484375 210.261719 199.484375 210.324219 C 199.425781 210.019531 199.242188 209.835938 199.425781 209.285156 L 200.097656 209.652344 L 199.484375 208.613281 C 199.667969 207.945312 199.242188 206.90625 199.667969 206.96875 L 199.792969 207.394531 L 200.160156 202.144531 L 200.710938 202.085938 C 200.035156 201.535156 201.074219 199.214844 200.160156 199.339844 C 200.710938 198.363281 199.914062 195.433594 200.953125 196.042969 C 201.136719 192.5625 200.21875 190.671875 200.832031 186.460938 C 201.75 184.996094 201.566406 180.84375 201.75 178.160156 C 201.503906 172.847656 201.320312 169.429688 201.136719 164 C 202.421875 160.765625 200.894531 155.882812 201.6875 152.402344 L 201.257812 151.425781 C 202.054688 149.105469 201.199219 145.566406 201.992188 142.269531 C 201.808594 141.476562 201.75 141.050781 201.75 140.867188 C 201.75 140.988281 201.625 141.234375 201.320312 141.292969 C 201.566406 140.378906 201.320312 138.488281 201.933594 138.609375 L 201.992188 138.851562 C 202.605469 138.976562 201.75 136.046875 202.300781 135.007812 L 201.625 135.558594 L 201.75 133.789062 L 201.871094 134.277344 C 200.527344 126.585938 202.667969 123.167969 201.441406 115.90625 C 202.117188 116.882812 201.074219 114.5 201.871094 114.378906 C 202.851562 112.546875 201.6875 111.023438 201.441406 109.496094 C 201.382812 109.496094 201.382812 109.496094 201.320312 109.375 L 201.441406 106.75 C 202.421875 108.335938 200.648438 104.855469 201.441406 106.320312 C 202.238281 99.546875 201.566406 90.636719 201.933594 82.824219 L 201.6875 83.191406 C 201.75 81.175781 201.441406 78.734375 201.871094 77.207031 C 202.300781 75.683594 201.257812 73.914062 201.199219 73.300781 C 200.769531 71.65625 201.625 70.066406 201.566406 70.800781 C 201.441406 68.96875 200.527344 67.320312 200.769531 64.820312 C 201.136719 64.390625 200.894531 62.621094 200.527344 61.035156 C 200.160156 59.386719 199.792969 57.921875 200.28125 57.800781 L 200.21875 57.800781 C 200.28125 56.945312 200.21875 56.152344 200.035156 55.359375 C 199.976562 54.929688 199.851562 54.566406 199.792969 54.136719 C 199.667969 53.773438 199.546875 53.34375 199.425781 52.917969 C 198.996094 51.332031 198.382812 49.742188 198.140625 47.914062 C 198.140625 47.914062 198.199219 47.972656 198.324219 48.035156 C 198.324219 48.035156 198.015625 47.667969 197.527344 47.058594 C 197.039062 46.507812 196.425781 45.777344 195.753906 45.042969 C 195.445312 44.675781 195.078125 44.371094 194.773438 44.007812 C 194.46875 43.699219 194.160156 43.394531 193.855469 43.152344 C 193.183594 42.722656 192.816406 42.417969 192.816406 42.417969 C 192.816406 42.417969 192.324219 43.210938 191.835938 44.007812 C 191.347656 44.738281 190.796875 45.472656 190.796875 45.472656 C 190.796875 45.472656 190.796875 45.59375 190.796875 45.714844 C 190.796875 45.898438 190.796875 46.140625 190.796875 46.386719 C 190.796875 46.9375 190.796875 47.730469 190.675781 48.460938 C 190.613281 49.195312 190.550781 49.925781 190.429688 50.476562 C 190.367188 51.023438 190.308594 51.390625 190.308594 51.390625 C 190.308594 51.390625 190.367188 51.574219 190.492188 52 C 190.613281 52.367188 190.796875 52.917969 190.980469 53.589844 C 191.347656 54.929688 191.777344 56.703125 192.082031 58.53125 C 192.265625 59.449219 192.386719 60.425781 192.507812 61.277344 C 192.632812 62.195312 192.753906 62.988281 192.816406 63.71875 C 192.9375 65.183594 193 66.160156 193 66.160156 C 193 66.160156 193 66.957031 192.9375 68.113281 C 192.875 69.273438 192.753906 70.859375 192.632812 72.449219 C 192.386719 75.683594 192.144531 78.855469 192.144531 78.855469 C 192.144531 78.855469 192.203125 86.730469 192.265625 94.605469 C 192.265625 102.476562 192.324219 110.351562 192.324219 110.351562 L 193 112.609375 C 191.714844 118.773438 193 126.707031 192.019531 133.359375 L 192.632812 133.480469 C 192.632812 135.375 192.265625 135.253906 192.144531 135.679688 C 191.960938 153.136719 192.324219 171.140625 191.101562 186.824219 C 190.675781 188.351562 190.734375 192.929688 190.308594 194.089844 C 190.917969 199.214844 190.675781 204.585938 190.429688 209.714844 L 190.367188 209.53125 L 190.429688 211.910156 C 190.367188 212.03125 190.308594 212.03125 190.246094 211.972656 C 190.675781 214.71875 190 218.929688 189.632812 222.285156 L 189.574219 222.105469 C 188.714844 241.453125 189.023438 259.519531 187.125 278.683594 C 186.390625 283.136719 186.207031 287.960938 186.023438 292.964844 C 185.960938 295.464844 185.839844 298.03125 185.71875 300.53125 C 185.65625 301.8125 185.535156 303.097656 185.410156 304.378906 L 185.226562 306.269531 L 185.105469 307.246094 L 184.921875 309.015625 C 184.675781 310.054688 184.308594 314.203125 183.941406 319.695312 C 183.574219 325.128906 183.148438 331.902344 182.84375 337.886719 C 186.390625 334.285156 189.695312 330.925781 192.324219 328.304688 C 194.894531 325.738281 196.671875 323.910156 197.222656 323.296875 Z M 197.222656 323.296875 " fill-opacity="1" fill-rule="nonzero"/></g><path fill="#010101" d="M 224.023438 302.609375 L 223.960938 302.667969 C 224.082031 302.851562 224.144531 302.730469 224.023438 302.609375 Z M 224.023438 302.609375 " fill-opacity="1" fill-rule="nonzero"/><path fill="#010101" d="M 192.386719 315.972656 C 192.386719 316.035156 192.386719 316.035156 192.386719 316.097656 L 192.816406 315.058594 Z M 192.386719 315.972656 " fill-opacity="1" fill-rule="nonzero"/><path fill="#010101" d="M 207.195312 304.925781 C 206.09375 305.597656 206.09375 305.660156 206.339844 305.660156 C 206.707031 305.355469 207.011719 305.109375 207.195312 304.925781 Z M 207.195312 304.925781 " fill-opacity="1" fill-rule="nonzero"/><path fill="#010101" d="M 232.464844 297.480469 C 233.015625 297.238281 232.773438 297.175781 232.34375 297.175781 C 231.792969 297.480469 231.363281 297.726562 231.363281 297.726562 C 231.730469 297.664062 232.097656 297.601562 232.464844 297.480469 Z M 232.464844 297.480469 " fill-opacity="1" fill-rule="nonzero"/><path fill="#010101" d="M 228.550781 295.648438 L 228.609375 295.34375 C 228.304688 295.589844 228.367188 295.648438 228.550781 295.648438 Z M 228.550781 295.648438 " fill-opacity="1" fill-rule="nonzero"/><path fill="#010101" d="M 165.464844 304.074219 C 165.464844 304.011719 165.402344 304.074219 165.464844 304.074219 Z M 165.464844 304.074219 " fill-opacity="1" fill-rule="nonzero"/><path fill="#010101" d="M 179.78125 318.109375 C 179.78125 318.109375 179.84375 318.109375 179.78125 318.109375 C 179.90625 318.050781 179.964844 317.988281 180.089844 317.988281 Z M 179.78125 318.109375 " fill-opacity="1" fill-rule="nonzero"/><path fill="#010101" d="M 181.25 321.101562 C 181.3125 321.101562 181.375 321.039062 181.25 321.101562 Z M 181.25 321.101562 " fill-opacity="1" fill-rule="nonzero"/><path fill="#010101" d="M 160.628906 300.53125 C 160.628906 300.53125 160.691406 300.53125 160.628906 300.53125 C 160.628906 300.53125 160.628906 300.472656 160.691406 300.472656 Z M 160.628906 300.53125 " fill-opacity="1" fill-rule="nonzero"/><path fill="#010101" d="M 160.8125 300.410156 C 160.8125 300.53125 160.691406 300.53125 160.628906 300.53125 C 160.570312 300.714844 160.628906 300.777344 160.753906 300.777344 C 160.875 300.65625 160.753906 300.53125 160.8125 300.410156 Z M 160.8125 300.410156 " fill-opacity="1" fill-rule="nonzero"/><path fill="#010101" d="M 152.125 294.125 L 152.1875 294.0625 C 152.1875 294.125 152.125 294.125 152.125 294.125 Z M 152.125 294.125 " fill-opacity="1" fill-rule="nonzero"/><path fill="#010101" d="M 153.347656 295.34375 L 153.53125 295.101562 C 153.410156 295.160156 153.347656 295.285156 153.347656 295.34375 Z M 153.347656 295.34375 " fill-opacity="1" fill-rule="nonzero"/><path fill="#010101" d="M 180.089844 317.988281 L 180.210938 317.925781 C 180.148438 317.925781 180.148438 317.925781 180.089844 317.988281 Z M 180.089844 317.988281 " fill-opacity="1" fill-rule="nonzero"/><path fill="#010101" d="M 182.964844 323.542969 C 182.902344 323.601562 182.84375 323.664062 182.78125 323.664062 Z M 182.964844 323.542969 " fill-opacity="1" fill-rule="nonzero"/><path fill="#010101" d="M 187.554688 338.375 C 187.554688 338.375 187.613281 338.3125 187.675781 338.3125 L 187.492188 338.375 C 187.492188 338.375 187.492188 338.375 187.554688 338.375 Z M 187.554688 338.375 " fill-opacity="1" fill-rule="nonzero"/><path fill="#010101" d="M 184.371094 327.570312 C 184.371094 327.570312 184.433594 327.570312 184.492188 327.507812 C 184.554688 327.386719 184.433594 327.203125 184.308594 327.082031 L 184.003906 327.265625 Z M 184.371094 327.570312 " fill-opacity="1" fill-rule="nonzero"/><g clip-path="url(#52cfdeef31)"><path fill="#010101" d="M 179.90625 336.054688 L 180.273438 335.320312 C 181.3125 336.238281 181.066406 337.152344 182.167969 337.761719 L 181.984375 337.824219 C 181.925781 338.070312 183.394531 337.214844 182.660156 339.839844 L 182.597656 339.898438 C 182.660156 339.960938 182.78125 339.839844 182.660156 340.082031 L 182.84375 339.59375 C 183.085938 339.65625 183.453125 339.59375 183.636719 339.777344 C 183.574219 339.839844 183.453125 339.960938 183.394531 340.023438 L 183.820312 340.449219 L 183.515625 340.875 C 183.820312 340.875 184.617188 340.265625 184.433594 341 C 184.921875 340.449219 184.921875 341 185.167969 340.753906 C 185.105469 340.816406 185.042969 340.9375 184.984375 341.058594 C 185.226562 341.242188 185.65625 341.667969 186.085938 341.546875 C 186.085938 341.546875 186.695312 339.777344 187.125 339.105469 C 187.1875 339.59375 187.246094 339.167969 187.429688 338.984375 L 187.246094 339.046875 C 187.246094 338.738281 187.613281 338.496094 187.675781 338.3125 C 187.675781 338.3125 187.613281 338.375 187.554688 338.375 L 187.613281 338.375 C 187.554688 338.433594 187.492188 338.433594 187.492188 338.433594 C 187.429688 338.496094 187.371094 338.496094 187.308594 338.433594 L 187.371094 338.433594 C 187.246094 338.375 187.1875 338.191406 187.1875 338.070312 L 187.492188 337.886719 C 186.820312 338.128906 187.675781 336.238281 187.554688 335.992188 C 187.796875 335.503906 187.125 335.566406 187.125 335.199219 C 186.941406 334.710938 187.429688 334.710938 187.554688 334.285156 C 187.554688 333.855469 187.246094 334.589844 187.125 334.46875 L 187.308594 333.855469 C 187.492188 334.039062 187.613281 333.796875 187.675781 333.675781 C 187.554688 333.367188 187.796875 332.515625 187.125 332.878906 C 187.1875 332.332031 187.429688 332.148438 187.308594 331.964844 C 187.246094 332.085938 187.1875 332.269531 187.0625 332.332031 C 187.246094 332.027344 186.941406 332.332031 186.941406 332.390625 C 186.511719 332.332031 187.1875 330.4375 186.511719 330.867188 L 186.636719 330.804688 C 186.085938 331.109375 185.71875 331.539062 185.289062 331.539062 L 185.410156 331.292969 L 185.105469 331.292969 C 185.167969 331.050781 185.351562 331.050781 185.410156 330.988281 C 184.984375 330.867188 184.984375 330.316406 184.859375 329.949219 L 183.757812 331.234375 C 183.882812 330.746094 184.1875 329.828125 183.699219 330.074219 L 184.003906 329.585938 C 184.492188 328.425781 183.394531 329.460938 183.453125 329.097656 L 183.757812 328.484375 L 183.941406 328.730469 C 184.003906 328.304688 184.066406 328.058594 184.25 327.632812 C 184.25 327.632812 184.25 327.691406 184.1875 327.691406 L 184.125 327.691406 C 183.882812 327.816406 183.574219 327.816406 183.453125 327.632812 C 183.332031 327.328125 182.84375 327.386719 183.027344 326.59375 L 182.476562 326.839844 L 182.535156 326.289062 L 182.902344 325.984375 C 183.085938 326.289062 183.699219 326.777344 184.003906 327.203125 L 184.1875 327.082031 C 184.003906 326.839844 183.636719 326.714844 183.574219 326.53125 C 183.574219 326.410156 183.882812 325.921875 184.25 325.863281 L 183.757812 325.984375 C 183.148438 325.191406 183.085938 325.25 182.902344 324.089844 L 182.78125 324.335938 C 182.535156 324.273438 182.292969 324.152344 182.597656 323.910156 C 182.292969 323.359375 182.109375 322.6875 182.351562 321.957031 L 181.863281 322.261719 C 181.800781 322.136719 182.351562 321.46875 181.679688 321.894531 L 181.3125 321.832031 C 181.25 321.648438 180.882812 321.773438 181.007812 321.40625 C 181.007812 321.40625 181.007812 321.34375 181.007812 321.34375 C 181.007812 321.34375 181.007812 321.34375 180.945312 321.40625 C 180.882812 320.917969 180.515625 321.710938 180.515625 321.160156 C 180.761719 320.796875 179.84375 321.46875 179.78125 321.222656 L 180.273438 320.550781 C 180.394531 319.941406 179.722656 320.367188 179.292969 319.941406 C 179.355469 319.515625 179.78125 318.964844 180.394531 318.71875 C 179.660156 318.964844 179.964844 318.964844 179.414062 318.902344 C 179.597656 318.660156 179.722656 318.660156 179.964844 318.539062 C 180.027344 318.050781 179.597656 318.539062 179.476562 318.355469 C 178.988281 318.660156 178.191406 319.207031 178.128906 319.148438 L 178.070312 319.332031 C 177.640625 319.332031 177.394531 319.207031 177.457031 318.84375 L 177.703125 318.660156 L 177.394531 318.539062 L 177.640625 318.292969 L 177.273438 318.050781 L 177.210938 318.171875 C 177.089844 318.109375 176.785156 317.925781 176.84375 317.683594 L 177.027344 317.5625 C 177.152344 316.707031 176.234375 316.949219 175.804688 316.523438 L 176.171875 316.277344 C 176.355469 315.851562 175.621094 316.644531 175.621094 316.339844 L 175.988281 315.972656 C 175.316406 316.277344 175.925781 315.667969 175.988281 315.363281 L 175.5 315.851562 L 175.4375 315.546875 C 175.375 315.179688 175.925781 314.8125 176.234375 314.632812 L 175.683594 314.8125 L 176.109375 314.386719 C 175.5 314.753906 176.109375 314.203125 175.621094 314.203125 C 175.804688 314.019531 175.925781 314.019531 175.925781 313.835938 L 175.007812 314.082031 L 175.5 314.019531 L 174.828125 314.570312 C 174.152344 314.8125 174.644531 314.203125 174.335938 314.203125 L 174.644531 314.144531 C 174.277344 314.019531 174.519531 313.777344 174.519531 313.472656 C 174.460938 313.65625 174.335938 313.835938 174.152344 313.835938 C 174.03125 313.777344 174.335938 313.59375 174.335938 313.472656 C 173.910156 313.835938 173.480469 313.898438 173.542969 313.53125 C 173.601562 313.472656 173.664062 313.410156 173.726562 313.410156 C 173.601562 313.410156 173.480469 313.53125 173.542969 313.347656 L 174.09375 312.984375 L 173.480469 313.289062 C 173.542969 313.105469 173.050781 313.289062 173.417969 312.984375 L 173.542969 312.921875 L 172.992188 312.128906 L 173.359375 311.761719 C 172.746094 312.191406 173.175781 311.214844 172.5625 311.824219 C 172.808594 311.335938 171.828125 311.519531 172.625 310.910156 C 172.257812 310.421875 171.339844 310.785156 171.15625 309.933594 C 171.582031 309.136719 170.847656 308.773438 170.605469 308.40625 C 169.6875 307.980469 169.011719 307.734375 168.09375 307.246094 C 168.523438 305.964844 166.75 306.515625 166.808594 305.597656 L 166.382812 305.84375 C 166.625 304.988281 165.527344 305.230469 165.585938 304.316406 C 165.34375 304.378906 165.21875 304.378906 165.21875 304.378906 C 165.21875 304.4375 165.21875 304.5 164.976562 304.742188 C 164.976562 304.5 164.546875 304.4375 164.976562 304.011719 L 165.035156 304.011719 C 165.464844 303.585938 164.484375 303.890625 164.667969 303.339844 L 164.300781 303.890625 L 164.117188 303.585938 L 164.242188 303.523438 C 162.28125 303.644531 163.199219 301.691406 161.304688 301.8125 C 161.914062 301.386719 160.875 301.9375 161.363281 301.324219 C 161.792969 300.410156 160.753906 301.082031 160.386719 301.082031 C 160.386719 301.082031 160.324219 301.144531 160.261719 301.203125 L 159.957031 300.835938 C 160.8125 300.289062 159.160156 301.203125 159.894531 300.777344 C 159.46875 299.433594 157.753906 298.945312 156.898438 297.785156 L 156.777344 298.03125 C 156.53125 297.785156 155.980469 297.726562 156.042969 297.238281 C 156.101562 296.75 155.183594 297.359375 155.0625 297.296875 C 154.574219 297.417969 154.878906 296.625 154.941406 296.75 C 154.632812 296.625 153.839844 297.113281 153.714844 296.566406 C 154.144531 295.832031 152.246094 296.441406 152.859375 295.710938 L 152.796875 295.773438 C 152.738281 294.917969 151.636719 295.464844 151.511719 294.613281 C 151.511719 294.613281 151.574219 294.550781 151.636719 294.550781 L 148.941406 296.015625 L 147.292969 298.703125 L 146.558594 301.324219 C 146.558594 301.324219 147.167969 301.632812 147.84375 301.9375 C 148.453125 302.242188 149.125 302.609375 149.125 302.609375 L 150.226562 304.742188 C 150.226562 304.742188 150.472656 304.925781 150.902344 305.230469 C 151.328125 305.539062 151.820312 305.964844 152.371094 306.332031 C 152.921875 306.757812 153.410156 307.125 153.839844 307.429688 C 154.207031 307.734375 154.511719 307.980469 154.511719 307.980469 L 155.246094 307.734375 C 155.183594 309.382812 157.203125 309.199219 157.386719 310.664062 L 157.816406 310.238281 C 158.058594 310.417969 157.816406 310.664062 157.816406 310.847656 C 160.078125 312.800781 162.832031 314.386719 164.117188 316.890625 C 163.996094 317.316406 164.730469 317.742188 164.546875 318.171875 C 165.648438 318.292969 166.320312 318.964844 166.871094 319.695312 L 166.808594 319.695312 L 167.175781 319.941406 C 167.175781 320.003906 167.117188 320.0625 167.054688 320.0625 C 167.789062 320.0625 167.851562 320.980469 168.035156 321.527344 L 167.972656 321.527344 C 170.054688 324.089844 172.929688 325.738281 174.277344 328.851562 C 174.335938 329.769531 174.949219 330.378906 175.558594 330.925781 C 176.171875 331.539062 176.785156 332.148438 176.96875 333.125 C 177.089844 333.308594 179.476562 335.933594 179.90625 336.054688 Z M 179.90625 336.054688 " fill-opacity="1" fill-rule="nonzero"/></g><path fill="#010101" d="M 183.453125 339.898438 C 183.269531 340.023438 183.332031 340.023438 183.453125 339.898438 Z M 183.453125 339.898438 " fill-opacity="1" fill-rule="nonzero"/><path fill="#010101" d="M 185.042969 329.828125 L 185.289062 329.585938 Z M 185.042969 329.828125 " fill-opacity="1" fill-rule="nonzero"/><path fill="#010101" d="M 187.980469 333.734375 C 187.921875 333.492188 187.859375 333.550781 187.796875 333.613281 C 187.859375 333.675781 187.921875 333.734375 187.980469 333.734375 Z M 187.980469 333.734375 " fill-opacity="1" fill-rule="nonzero"/><g clip-path="url(#b5c9ed9b11)"><path fill="#010101" d="M 184.800781 341.121094 C 184.859375 341.242188 184.921875 341.121094 185.042969 340.9375 C 184.984375 340.875 184.921875 340.816406 184.921875 340.816406 C 184.921875 340.875 184.859375 341.058594 184.800781 341.121094 Z M 184.800781 341.121094 " fill-opacity="1" fill-rule="nonzero"/></g><path fill="#010101" d="M 187.492188 338.863281 L 187.675781 338.800781 C 187.613281 338.800781 187.554688 338.800781 187.492188 338.863281 Z M 187.492188 338.863281 " fill-opacity="1" fill-rule="nonzero"/></svg>